<svg width="218" height="31" viewBox="0 0 218 31" fill="none" xmlns="http://www.w3.org/2000/svg">
<path d="M30.132 5.052L25.956 30H18.288L15.192 10.956L11.916 30H4.428L0.324 5.052H6.228L8.712 25.536L12.168 5.052H18.36L21.6 25.536L24.516 5.052H30.132ZM38.4005 10.884V30H32.7125V10.884H38.4005ZM35.5205 0.803998C36.5045 0.803998 37.3085 1.116 37.9325 1.74C38.5805 2.34 38.9045 3.108 38.9045 4.044C38.9045 4.98 38.5805 5.76 37.9325 6.384C37.3085 6.984 36.5045 7.284 35.5205 7.284C34.5365 7.284 33.7325 6.984 33.1085 6.384C32.4845 5.76 32.1725 4.98 32.1725 4.044C32.1725 3.108 32.4845 2.34 33.1085 1.74C33.7325 1.116 34.5365 0.803998 35.5205 0.803998ZM47.9486 30.612C46.2926 30.612 44.9966 30.144 44.0606 29.208C43.1486 28.248 42.6926 26.892 42.6926 25.14V3.288L48.3806 2.676V24.924C48.3806 25.716 48.7046 26.112 49.3526 26.112C49.6886 26.112 50.0006 26.052 50.2886 25.932L51.4046 29.964C50.3726 30.396 49.2206 30.612 47.9486 30.612ZM60.2921 10.272C61.6601 10.272 62.9441 10.476 64.1441 10.884C65.3441 11.292 66.4001 11.868 67.3121 12.612L65.2241 15.816C63.6641 14.832 62.0921 14.34 60.5081 14.34C59.7641 14.34 59.1881 14.472 58.7801 14.736C58.3961 14.976 58.2041 15.324 58.2041 15.78C58.2041 16.14 58.2881 16.44 58.4561 16.68C58.6481 16.896 59.0201 17.124 59.5721 17.364C60.1241 17.604 60.9761 17.892 62.1281 18.228C64.1201 18.804 65.5961 19.56 66.5561 20.496C67.5401 21.408 68.0321 22.68 68.0321 24.312C68.0321 25.608 67.6601 26.736 66.9161 27.696C66.1721 28.632 65.1521 29.352 63.8561 29.856C62.5601 30.36 61.1201 30.612 59.5361 30.612C57.9281 30.612 56.4281 30.36 55.0361 29.856C53.6681 29.352 52.5041 28.656 51.5441 27.768L54.3161 24.672C55.9241 25.92 57.6161 26.544 59.3921 26.544C60.2561 26.544 60.9281 26.388 61.4081 26.076C61.9121 25.764 62.1641 25.32 62.1641 24.744C62.1641 24.288 62.0681 23.928 61.8761 23.664C61.6841 23.4 61.3121 23.16 60.7601 22.944C60.2081 22.704 59.3321 22.416 58.1321 22.08C56.2361 21.528 54.8201 20.76 53.8841 19.776C52.9481 18.792 52.4801 17.568 52.4801 16.104C52.4801 15 52.7921 14.016 53.4161 13.152C54.0641 12.264 54.9761 11.568 56.1521 11.064C57.3521 10.536 58.7321 10.272 60.2921 10.272ZM79.2425 10.272C82.1705 10.272 84.4625 11.172 86.1185 12.972C87.7745 14.748 88.6025 17.244 88.6025 20.46C88.6025 22.5 88.2185 24.288 87.4505 25.824C86.7065 27.336 85.6265 28.512 84.2105 29.352C82.8185 30.192 81.1625 30.612 79.2425 30.612C76.3385 30.612 74.0465 29.724 72.3665 27.948C70.7105 26.148 69.8825 23.64 69.8825 20.424C69.8825 18.384 70.2545 16.608 70.9985 15.096C71.7665 13.56 72.8465 12.372 74.2385 11.532C75.6545 10.692 77.3225 10.272 79.2425 10.272ZM79.2425 14.448C78.0905 14.448 77.2265 14.94 76.6505 15.924C76.0745 16.884 75.7865 18.384 75.7865 20.424C75.7865 22.512 76.0625 24.036 76.6145 24.996C77.1905 25.956 78.0665 26.436 79.2425 26.436C80.3945 26.436 81.2585 25.956 81.8345 24.996C82.4105 24.012 82.6985 22.5 82.6985 20.46C82.6985 18.372 82.4105 16.848 81.8345 15.888C81.2825 14.928 80.4185 14.448 79.2425 14.448ZM103.182 10.272C104.838 10.272 106.134 10.776 107.07 11.784C108.006 12.792 108.474 14.208 108.474 16.032V30H102.786V17.004C102.786 16.044 102.63 15.384 102.318 15.024C102.03 14.64 101.586 14.448 100.986 14.448C99.8339 14.448 98.7299 15.276 97.6739 16.932V30H91.9859V10.884H96.9539L97.3499 13.152C98.1659 12.192 99.0419 11.472 99.9779 10.992C100.938 10.512 102.006 10.272 103.182 10.272ZM129.442 4.44C131.314 4.44 132.934 4.704 134.302 5.232C135.694 5.76 136.954 6.564 138.082 7.644L135.346 10.848C133.642 9.456 131.818 8.76 129.874 8.76C128.842 8.76 128.026 8.976 127.426 9.408C126.826 9.816 126.526 10.416 126.526 11.208C126.526 11.76 126.658 12.216 126.922 12.576C127.186 12.912 127.654 13.236 128.326 13.548C128.998 13.86 130.006 14.232 131.35 14.664C133.894 15.48 135.766 16.488 136.966 17.688C138.166 18.864 138.766 20.544 138.766 22.728C138.766 24.288 138.37 25.668 137.578 26.868C136.786 28.044 135.646 28.968 134.158 29.64C132.67 30.288 130.906 30.612 128.866 30.612C126.826 30.612 125.014 30.288 123.43 29.64C121.87 28.992 120.526 28.128 119.398 27.048L122.386 23.772C123.346 24.588 124.33 25.2 125.338 25.608C126.37 26.016 127.486 26.22 128.686 26.22C129.91 26.22 130.87 25.956 131.566 25.428C132.286 24.876 132.646 24.12 132.646 23.16C132.646 22.536 132.514 22.02 132.25 21.612C131.986 21.18 131.53 20.796 130.882 20.46C130.234 20.124 129.298 19.764 128.074 19.38C125.314 18.54 123.346 17.508 122.17 16.284C121.018 15.06 120.442 13.512 120.442 11.64C120.442 10.2 120.826 8.94 121.594 7.86C122.362 6.756 123.43 5.916 124.798 5.34C126.166 4.74 127.714 4.44 129.442 4.44ZM150.188 10.272C153.116 10.272 155.408 11.172 157.064 12.972C158.72 14.748 159.548 17.244 159.548 20.46C159.548 22.5 159.164 24.288 158.396 25.824C157.652 27.336 156.572 28.512 155.156 29.352C153.764 30.192 152.108 30.612 150.188 30.612C147.284 30.612 144.992 29.724 143.312 27.948C141.656 26.148 140.828 23.64 140.828 20.424C140.828 18.384 141.2 16.608 141.944 15.096C142.712 13.56 143.792 12.372 145.184 11.532C146.6 10.692 148.268 10.272 150.188 10.272ZM150.188 14.448C149.036 14.448 148.172 14.94 147.596 15.924C147.02 16.884 146.732 18.384 146.732 20.424C146.732 22.512 147.008 24.036 147.56 24.996C148.136 25.956 149.012 26.436 150.188 26.436C151.34 26.436 152.204 25.956 152.78 24.996C153.356 24.012 153.644 22.5 153.644 20.46C153.644 18.372 153.356 16.848 152.78 15.888C152.228 14.928 151.364 14.448 150.188 14.448ZM179.059 30H174.127L173.875 27.588C172.483 29.604 170.551 30.612 168.079 30.612C166.327 30.612 164.995 30.084 164.083 29.028C163.195 27.972 162.751 26.496 162.751 24.6V10.884H168.439V23.88C168.439 24.816 168.583 25.476 168.871 25.86C169.183 26.22 169.651 26.4 170.275 26.4C171.475 26.4 172.507 25.656 173.371 24.168V10.884H179.059V30ZM190.265 10.272C191.633 10.272 192.917 10.476 194.117 10.884C195.317 11.292 196.373 11.868 197.285 12.612L195.197 15.816C193.637 14.832 192.065 14.34 190.481 14.34C189.737 14.34 189.161 14.472 188.753 14.736C188.369 14.976 188.177 15.324 188.177 15.78C188.177 16.14 188.261 16.44 188.429 16.68C188.621 16.896 188.993 17.124 189.545 17.364C190.097 17.604 190.949 17.892 192.101 18.228C194.093 18.804 195.569 19.56 196.529 20.496C197.513 21.408 198.005 22.68 198.005 24.312C198.005 25.608 197.633 26.736 196.889 27.696C196.145 28.632 195.125 29.352 193.829 29.856C192.533 30.36 191.093 30.612 189.509 30.612C187.901 30.612 186.401 30.36 185.009 29.856C183.641 29.352 182.477 28.656 181.517 27.768L184.289 24.672C185.897 25.92 187.589 26.544 189.365 26.544C190.229 26.544 190.901 26.388 191.381 26.076C191.885 25.764 192.137 25.32 192.137 24.744C192.137 24.288 192.041 23.928 191.849 23.664C191.657 23.4 191.285 23.16 190.733 22.944C190.181 22.704 189.305 22.416 188.105 22.08C186.209 21.528 184.793 20.76 183.857 19.776C182.921 18.792 182.453 17.568 182.453 16.104C182.453 15 182.765 14.016 183.389 13.152C184.037 12.264 184.949 11.568 186.125 11.064C187.325 10.536 188.705 10.272 190.265 10.272ZM215.776 24.456C215.776 25.176 215.872 25.704 216.064 26.04C216.28 26.376 216.616 26.628 217.072 26.796L215.884 30.504C214.708 30.408 213.748 30.156 213.004 29.748C212.26 29.316 211.684 28.644 211.276 27.732C210.028 29.652 208.108 30.612 205.516 30.612C203.62 30.612 202.108 30.06 200.98 28.956C199.852 27.852 199.288 26.412 199.288 24.636C199.288 22.548 200.056 20.952 201.592 19.848C203.128 18.744 205.348 18.192 208.252 18.192H210.196V17.364C210.196 16.236 209.956 15.468 209.476 15.06C208.996 14.628 208.156 14.412 206.956 14.412C206.332 14.412 205.576 14.508 204.688 14.7C203.8 14.868 202.888 15.108 201.952 15.42L200.656 11.676C201.856 11.22 203.08 10.872 204.328 10.632C205.6 10.392 206.776 10.272 207.856 10.272C210.592 10.272 212.596 10.836 213.868 11.964C215.14 13.092 215.776 14.784 215.776 17.04V24.456ZM207.172 26.544C208.468 26.544 209.476 25.932 210.196 24.708V21.324H208.792C207.496 21.324 206.524 21.552 205.876 22.008C205.252 22.464 204.94 23.172 204.94 24.132C204.94 24.9 205.132 25.5 205.516 25.932C205.924 26.34 206.476 26.544 207.172 26.544Z" fill="black"/>
</svg>
