<svg width="210" height="68" viewBox="0 0 210 68" fill="none" xmlns="http://www.w3.org/2000/svg">
<path d="M29.248 17.528L32.848 25.52L10.096 35.024L32.848 44.24L29.248 52.52L0.448 40.064V30.056L29.248 17.528ZM95.5999 9.104L87.2479 59H71.9119L65.7199 20.912L59.1679 59H44.1919L35.9839 9.104H47.7919L52.7599 50.072L59.6719 9.104H72.0559L78.5359 50.072L84.3679 9.104H95.5999ZM116.33 7.88C120.074 7.88 123.314 8.408 126.05 9.464C128.834 10.52 131.354 12.128 133.61 14.288L128.138 20.696C124.73 17.912 121.082 16.52 117.194 16.52C115.13 16.52 113.498 16.952 112.298 17.816C111.098 18.632 110.498 19.832 110.498 21.416C110.498 22.52 110.762 23.432 111.29 24.152C111.818 24.824 112.754 25.472 114.098 26.096C115.442 26.72 117.458 27.464 120.146 28.328C125.234 29.96 128.978 31.976 131.378 34.376C133.778 36.728 134.978 40.088 134.978 44.456C134.978 47.576 134.186 50.336 132.602 52.736C131.018 55.088 128.738 56.936 125.762 58.28C122.786 59.576 119.258 60.224 115.178 60.224C111.098 60.224 107.474 59.576 104.306 58.28C101.186 56.984 98.4978 55.256 96.2418 53.096L102.218 46.544C104.138 48.176 106.106 49.4 108.122 50.216C110.186 51.032 112.418 51.44 114.818 51.44C117.266 51.44 119.186 50.912 120.578 49.856C122.018 48.752 122.738 47.24 122.738 45.32C122.738 44.072 122.474 43.04 121.946 42.224C121.418 41.36 120.506 40.592 119.21 39.92C117.914 39.248 116.042 38.528 113.594 37.76C108.074 36.08 104.138 34.016 101.786 31.568C99.4818 29.12 98.3298 26.024 98.3298 22.28C98.3298 19.4 99.0978 16.88 100.634 14.72C102.17 12.512 104.306 10.832 107.042 9.68C109.778 8.48 112.874 7.88 116.33 7.88ZM159.045 0.247997L168.981 2.48L152.061 67.064L142.053 64.76L159.045 0.247997ZM180.251 17.528L209.051 30.056V40.064L180.251 52.52L176.651 44.24L199.403 35.024L176.651 25.52L180.251 17.528Z" fill="#743342"/>
</svg>
